<svg id="pill_x5F_bottle" enable-background="new 0 0 300 300" height="512" viewBox="0 0 300 300" width="512" xmlns="http://www.w3.org/2000/svg"><g><circle cx="123.809" cy="135.122" fill="#e5efef" r="92"/><g><path d="m99.809 123.664v-28.542h100v137.706c0 10.104-8.191 18.294-18.294 18.294h-63.411c-10.104 0-18.294-8.191-18.294-18.294v-93.554" fill="#fc8c29"/><path d="m181.516 255.122h-63.414c-12.293 0-22.293-10.002-22.293-22.295v-93.553c0-2.209 1.789-4 4-4s4 1.791 4 4v93.553c0 7.883 6.41 14.295 14.293 14.295h63.414c7.883 0 14.293-6.412 14.293-14.295v-133.705h-92v24.543c0 2.209-1.789 4-4 4s-4-1.791-4-4v-28.543c0-2.209 1.789-4 4-4h100c2.211 0 4 1.791 4 4v137.705c0 12.293-10 22.295-22.293 22.295z" fill="#4c241d"/></g><g><path d="m202.307 111.122h-104.996c-5.248 0-9.502-4.254-9.502-9.502v-12.996c0-5.248 4.254-9.502 9.502-9.502h104.996c5.248 0 9.502 4.254 9.502 9.502v12.996c0 5.247-4.254 9.502-9.502 9.502z" fill="#fff"/><path d="m202.305 115.122h-104.992c-7.445 0-13.504-6.057-13.504-13.502v-12.997c0-7.445 6.059-13.502 13.504-13.502h104.992c7.445 0 13.504 6.057 13.504 13.502v12.996c0 7.446-6.059 13.503-13.504 13.503zm-104.992-32c-3.035 0-5.504 2.469-5.504 5.502v12.996c0 3.033 2.469 5.502 5.504 5.502h104.992c3.035 0 5.504-2.469 5.504-5.502v-12.997c0-3.033-2.469-5.502-5.504-5.502h-104.992z" fill="#4c241d"/></g><g><path d="m99.809 143.122h100v72h-100z" fill="#fff"/><path d="m199.809 219.122h-100c-2.211 0-4-1.791-4-4v-72c0-2.209 1.789-4 4-4h100c2.211 0 4 1.791 4 4v72c0 2.209-1.789 4-4 4zm-96-8h92v-64h-92z" fill="#4c241d"/></g><path d="m131.809 167.122h-12c-2.211 0-4-1.791-4-4s1.789-4 4-4h12c2.211 0 4 1.791 4 4s-1.789 4-4 4z" fill="#4c241d"/><path d="m179.809 183.122h-60c-2.211 0-4-1.791-4-4s1.789-4 4-4h60c2.211 0 4 1.791 4 4s-1.789 4-4 4z" fill="#4c241d"/><path d="m179.809 199.122h-60c-2.211 0-4-1.791-4-4s1.789-4 4-4h60c2.211 0 4 1.791 4 4s-1.789 4-4 4z" fill="#4c241d"/><g><path d="m107.809 111.122v-32" fill="#fc8c29"/><path d="m107.809 115.122c-2.211 0-4-1.791-4-4v-32c0-2.209 1.789-4 4-4s4 1.791 4 4v32c0 2.209-1.789 4-4 4z" fill="#4c241d"/></g><g><path d="m135.809 111.122v-32" fill="#fc8c29"/><path d="m135.809 115.122c-2.211 0-4-1.791-4-4v-32c0-2.209 1.789-4 4-4s4 1.791 4 4v32c0 2.209-1.789 4-4 4z" fill="#4c241d"/></g><g><path d="m163.809 111.122v-32" fill="#fc8c29"/><path d="m163.809 115.122c-2.211 0-4-1.791-4-4v-32c0-2.209 1.789-4 4-4s4 1.791 4 4v32c0 2.209-1.789 4-4 4z" fill="#4c241d"/></g><path d="" style="fill:#fc8c29;stroke:#4c241d;stroke-width:8;stroke-linecap:round;stroke-linejoin:round;stroke-miterlimit:10"/><path d="" style="fill:#fc8c29;stroke:#4c241d;stroke-width:8;stroke-linecap:round;stroke-linejoin:round;stroke-miterlimit:10"/><path d="" style="fill:#fc8c29;stroke:#4c241d;stroke-width:8;stroke-linecap:round;stroke-linejoin:round;stroke-miterlimit:10"/><path d="" style="fill:#fc8c29;stroke:#4c241d;stroke-width:8;stroke-linecap:round;stroke-linejoin:round;stroke-miterlimit:10"/><g><path d="m191.809 111.122v-32" fill="#fc8c29"/><path d="m191.809 115.122c-2.211 0-4-1.791-4-4v-32c0-2.209 1.789-4 4-4s4 1.791 4 4v32c0 2.209-1.789 4-4 4z" fill="#4c241d"/></g><g fill="#4c241d"><path d="m55.809 55.122c-2.211 0-4-1.791-4-4v-8c0-2.209 1.789-4 4-4s4 1.791 4 4v8c0 2.209-1.789 4-4 4z"/><path d="m55.809 79.122c-2.211 0-4-1.791-4-4v-8c0-2.209 1.789-4 4-4s4 1.791 4 4v8c0 2.209-1.789 4-4 4z"/><path d="m47.809 63.122h-8c-2.211 0-4-1.791-4-4s1.789-4 4-4h8c2.211 0 4 1.791 4 4s-1.789 4-4 4z"/><path d="m71.809 63.122h-8c-2.211 0-4-1.791-4-4s1.789-4 4-4h8c2.211 0 4 1.791 4 4s-1.789 4-4 4z"/><path d="m235.809 239.122c-2.211 0-4-1.791-4-4v-8c0-2.209 1.789-4 4-4s4 1.791 4 4v8c0 2.209-1.789 4-4 4z"/><path d="m235.809 263.122c-2.211 0-4-1.791-4-4v-8c0-2.209 1.789-4 4-4s4 1.791 4 4v8c0 2.209-1.789 4-4 4z"/><path d="m227.809 247.122h-8c-2.211 0-4-1.791-4-4s1.789-4 4-4h8c2.211 0 4 1.791 4 4s-1.789 4-4 4z"/><path d="m251.809 247.122h-8c-2.211 0-4-1.791-4-4s1.789-4 4-4h8c2.211 0 4 1.791 4 4s-1.789 4-4 4z"/><path d="m45.809 251.122c-7.719 0-14-6.281-14-14s6.281-14 14-14 14 6.281 14 14-6.281 14-14 14zm0-20c-3.309 0-6 2.691-6 6s2.691 6 6 6 6-2.691 6-6-2.691-6-6-6z"/><path d="m249.809 135.122c-7.719 0-14-6.281-14-14s6.281-14 14-14 14 6.281 14 14-6.281 14-14 14zm0-20c-3.309 0-6 2.691-6 6s2.691 6 6 6 6-2.691 6-6-2.691-6-6-6z"/><circle cx="263.914" cy="181.155" r="4.276"/><circle cx="71.914" cy="205.155" r="4.276"/><circle cx="107.914" cy="41.155" r="4.276"/></g></g></svg>