<svg id="Capa_1" enable-background="new 0 0 511.999 511.999" height="512" viewBox="0 0 511.999 511.999" width="512" xmlns="http://www.w3.org/2000/svg"><g><path d="m409.233 244.414h-306.468v-232.072c0-2.674 2.168-4.842 4.842-4.842h296.784c2.674 0 4.842 2.168 4.842 4.842z" fill="#756e78"/><path d="m404.392 7.5h-18.342c2.674 0 4.842 2.168 4.842 4.842v62.997c0 2.241-2.699 3.305-4.28 1.717-.016-.016-.033-.033-.049-.049-1.432-1.434-3.011-2.737-4.696-3.876-5.26-3.554-11.403-5.433-17.767-5.433h-28.914c-5.63 0-10.922 1.473-15.513 4.053-.771.434-1.697.434-2.469 0-4.732-2.659-10.051-4.053-15.533-4.053h-28.915c-5.631 0-10.923 1.472-15.513 4.053-.771.434-1.697.434-2.469 0-4.732-2.659-10.052-4.053-15.534-4.053h-28.915c-5.631 0-10.922 1.472-15.513 4.053-.771.434-1.697.434-2.469 0-4.732-2.659-10.051-4.053-15.533-4.053h-28.915c-17.539 0-31.757 14.218-31.757 31.757v13.669c0 1.372-1.113 2.485-2.485 2.485h-10.89v128.805h288.127 18.341v-128.805-103.267c.002-2.674-2.165-4.842-4.839-4.842z" fill="#665e66"/><g><g fill="#eab14d"><path d="m193.57 300.278h-62.43v-200.823c0-9.255 7.503-16.757 16.757-16.757h28.915c9.255 0 16.757 7.503 16.757 16.757v200.823z"/><path d="m255.999 300.278h-62.43v-200.823c0-9.255 7.503-16.757 16.757-16.757h28.915c9.255 0 16.757 7.503 16.757 16.757v200.823z"/><path d="m318.429 300.278h-62.43v-200.823c0-9.255 7.503-16.757 16.757-16.757h28.915c9.255 0 16.757 7.503 16.757 16.757v200.823z"/><path d="m380.858 300.278h-62.43v-200.823c0-9.255 7.503-16.757 16.757-16.757h28.915c9.255 0 16.757 7.503 16.757 16.757v200.823z"/></g><path d="m176.812 82.697h-16.805c9.255 0 16.758 7.502 16.758 16.758v200.823h16.805v-200.823c0-9.255-7.503-16.758-16.758-16.758z" fill="#e49542"/><path d="m239.242 82.697h-16.805c9.255 0 16.757 7.502 16.757 16.758v200.823h16.805v-200.823c0-9.255-7.502-16.758-16.757-16.758z" fill="#e49542"/><path d="m301.671 82.697h-16.805c9.255 0 16.757 7.502 16.757 16.758v200.823h16.805v-200.823c.001-9.255-7.502-16.758-16.757-16.758z" fill="#e49542"/><path d="m364.101 82.697h-16.805c9.255 0 16.758 7.502 16.758 16.758v200.823h16.805v-200.823c-.001-9.255-7.503-16.758-16.758-16.758z" fill="#e49542"/></g><path d="m423.049 130.609v359.663c0 7.857-6.37 14.227-14.227 14.227h-305.646c-7.857 0-14.227-6.369-14.227-14.227v-359.663h43.91c15.24 0 27.6 12.36 27.6 27.61v28.56c0 21.247 17.224 38.47 38.47 38.47h114.13c21.252 0 38.48-17.228 38.48-38.48v-28.55c0-15.249 12.361-27.61 27.61-27.61z" fill="#f1f4f6"/><g><path d="m400.345 130.609v373.89h8.478c7.857 0 14.227-6.369 14.227-14.227v-359.663z" fill="#dfeaef"/></g><path d="m423.049 130.609v139.67h-334.1v-139.67h43.91c15.24 0 27.6 12.36 27.6 27.61v28.56c0 21.25 17.23 38.47 38.48 38.47h114.12c21.25 0 38.48-17.22 38.48-38.47v-28.56c0-15.25 12.36-27.61 27.6-27.61z" fill="#d0e2e7"/><g><path d="m400.345 130.609h22.704v139.67h-22.704z" fill="#b4d0d5"/></g><path d="m255.999 431.868-167.05-98.98v157.385c0 7.857 6.369 14.227 14.227 14.227h305.647c7.857 0 14.227-6.369 14.227-14.227v-157.385z" fill="#dd636e"/><path d="m400.345 346.34v158.159h8.478c7.857 0 14.227-6.369 14.227-14.227v-157.384z" fill="#da4a54"/><g><path d="m199.626 329.863h112.746c4.143 0 7.5-3.357 7.5-7.5s-3.357-7.5-7.5-7.5h-112.746c-4.142 0-7.5 3.357-7.5 7.5s3.358 7.5 7.5 7.5z"/><path d="m423.05 192.95c4.143 0 7.5-3.357 7.5-7.5v-54.842c0-4.143-3.357-7.5-7.5-7.5h-6.316v-110.766c-.001-6.806-5.537-12.342-12.342-12.342h-237.36c-4.142 0-7.5 3.357-7.5 7.5s3.358 7.5 7.5 7.5h234.701v108.108h-13.375v-23.653c0-13.376-10.882-24.258-24.258-24.258h-28.914c-6.496 0-12.399 2.572-16.758 6.744-4.359-4.172-10.261-6.744-16.757-6.744h-28.915c-6.496 0-12.399 2.571-16.757 6.744-4.359-4.172-10.262-6.744-16.758-6.744h-28.915c-6.496 0-12.399 2.572-16.757 6.744-4.359-4.172-10.262-6.744-16.757-6.744h-28.915c-13.375 0-24.257 10.882-24.257 24.258v23.653h-13.375v-108.108h26.78c4.142 0 7.5-3.357 7.5-7.5s-3.358-7.5-7.5-7.5h-29.438c-6.805 0-12.342 5.536-12.342 12.342v110.767h-6.316c-4.142 0-7.5 3.357-7.5 7.5v359.664c0 11.98 9.747 21.727 21.727 21.727h305.646c11.98 0 21.728-9.746 21.728-21.727v-274.835c0-4.143-3.357-7.5-7.5-7.5s-7.5 3.357-7.5 7.5v47.341h-319.101v-124.67c4.296 0 38.689 0 36.41 0 11.083 0 20.1 9.021 20.1 20.11v28.55c0 24.267 19.499 45.98 45.98 45.98 119.094-.152 114.53.343 120.233-.417.032-.003.064-.008.096-.012 22.425-3.038 39.771-22.295 39.771-45.541v-28.56c0-11.089 9.021-20.11 20.11-20.11 2.56.001 36.264 0 36.4 0v47.342c.001 4.142 3.358 7.499 7.501 7.499zm-150.293-102.753h28.915c5.104 0 9.257 4.153 9.257 9.258v118.294h-47.429v-118.294c0-.004 0-.009 0-.013.007-5.098 4.157-9.245 9.257-9.245zm-62.43 0h28.915c5.105 0 9.258 4.153 9.258 9.258v118.294h-47.43v-118.294c0-5.104 4.153-9.258 9.257-9.258zm205.223 187.581v50.836l-159.55 94.535-92.095-54.567c-3.564-2.11-8.165-.934-10.276 2.629s-.934 8.164 2.629 10.275l95.918 56.833c2.345 1.389 5.274 1.405 7.646 0l155.728-92.271v144.224c0 3.709-3.018 6.727-6.728 6.727h-305.646c-3.709 0-6.727-3.018-6.727-6.727v-144.223l34.008 20.15c3.555 2.107 8.16.942 10.276-2.629 2.111-3.563.934-8.164-2.629-10.275l-41.655-24.681v-50.836zm-247.591-91.009v-28.55c0-17.39-12.707-31.859-29.319-34.626v-24.138c0-5.104 4.153-9.258 9.257-9.258h28.915c5.104 0 9.257 4.153 9.257 9.258v115.483c-10.674-4.896-18.11-15.677-18.11-28.169zm176.08-28.55v28.56c0 12.49-7.436 23.27-18.11 28.164v-115.488c0-5.104 4.153-9.258 9.258-9.258h28.914c5.104 0 9.258 4.153 9.258 9.258v24.139c-16.614 2.77-29.32 17.238-29.32 34.625z"/></g></g></svg>