<svg enable-background="new 0 0 256 256" height="512" viewBox="0 0 256 256" width="512" xmlns="http://www.w3.org/2000/svg"><g id="Layer_1"><g><g><g><path d="m43.206 93.572.019 70.762c0 48.705 40.939 86.743 87.612 84.706 42.063-1.836 81.964-37.721 81.964-84.706v-70.762z" fill="#ffb69f"/></g><g><path d="m212.799 93.579h-169.584l.002-24.544c0-21.475 17.479-38.499 38.499-38.499h91.475c13.966 0 25.969-9.941 28.586-23.665 41.611 28.511 35.412 70.341 11.022 86.708z" fill="#7c7b7a"/></g><g><path d="m44.539 179.106h-9.884c-13.497 0-24.405-10.922-24.405-24.405 0-13.44 10.88-24.391 24.405-24.391h8.561v34.019c0 8.612 1.323 14.777 1.323 14.777z" fill="#ffb69f"/></g><g><path d="m43.215 93.579v47.994l34.055-47.994z" fill="#afafaf"/></g><g><path d="m178.743 93.579 34.056 47.994v-47.994z" fill="#afafaf"/></g><g><path d="m245.75 154.715c0 13.44-10.866 24.376-24.376 24.376h-9.87c.91-4.779 1.294-9.728 1.294-14.762v-34.033h8.576c13.482 0 24.376 10.923 24.376 24.419z" fill="#ffb69f"/></g><g><path d="m119.243 155.63v22.238c0 4.838 3.922 8.759 8.759 8.759 4.838 0 8.759-3.922 8.759-8.759v-22.238z" fill="#72c2e9"/></g></g><g><g><path d="m91.41 231.301c-1.21-.665-1.651-2.185-.986-3.395.666-1.21 2.186-1.651 3.395-.987 11.229 6.172 23.88 9.182 36.429 8.633 33.349-1.456 69.054-30.42 69.054-71.218v-22.76c0-1.381 1.119-2.5 2.5-2.5s2.5 1.119 2.5 2.5v22.76c0 19.986-8.143 38.979-22.928 53.479-13.91 13.643-32.466 21.929-50.907 22.734-13.488.588-27.043-2.643-39.057-9.246zm-8.696-5.571c-1.149-.85-2.289-1.743-3.387-2.654-1.063-.882-1.209-2.458-.327-3.521.881-1.064 2.459-1.208 3.521-.327 1.026.852 2.091 1.686 3.166 2.481 1.11.821 1.345 2.387.523 3.497-.821 1.11-2.386 1.344-3.496.524z" fill="#fae0e1"/></g><g><path d="m209.17 85.079h-140.015c-1.381 0-2.5-1.119-2.5-2.5s1.119-2.5 2.5-2.5h139.094c13.229-11.63 15.62-34.567-3.996-53.827-.985-.967-1-2.55-.033-3.536.968-.984 2.551-.999 3.535-.033 21.635 21.241 19.535 48.156 3.008 61.822-.449.371-1.011.574-1.593.574zm-150.015 0h-4.939c-1.381 0-2.5-1.119-2.5-2.5s1.119-2.5 2.5-2.5h4.939c1.381 0 2.5 1.119 2.5 2.5s-1.119 2.5-2.5 2.5z" fill="#efefef"/></g><path d="m101.932 119.305-24.652 11.141c-1.259.569-1.817 2.05-1.249 3.308.418.924 1.327 1.471 2.28 1.471.877 0-.562.496 25.679-11.363 1.259-.569 1.817-2.05 1.249-3.308-.569-1.257-2.047-1.817-3.307-1.249z"/><path d="m179.974 133.754c.568-1.258.01-2.739-1.249-3.308l-24.651-11.141c-1.259-.57-2.739-.009-3.308 1.249-.568 1.258-.01 2.739 1.249 3.308 26.241 11.859 24.802 11.363 25.679 11.363.952 0 1.862-.547 2.28-1.471z"/><path d="m119.243 153.13c-1.381 0-2.5 1.119-2.5 2.5v22.237c0 6.208 5.051 11.259 11.259 11.259 6.209 0 11.26-5.051 11.26-11.259v-22.237c0-1.381-1.119-2.5-2.5-2.5s-2.5 1.119-2.5 2.5v22.237c0 3.451-2.809 6.259-6.26 6.259s-6.259-2.808-6.259-6.259v-22.237c0-1.381-1.119-2.5-2.5-2.5z"/><path d="m227.62 76.474c-1.17-.65-2.75-.19-3.4.97v.01c-.664 1.203-.232 2.733.98 3.39 1.192.68 2.721.239 3.39-.96 0-.01 0-.01.01-.01.663-1.222.232-2.732-.98-3.4z"/><path d="m232.64 70.144c7.454-25.559-6.682-49.765-29.45-65.34-1.453-.991-3.523-.201-3.87 1.6-2.39 12.53-13.38 21.63-26.13 21.63h-26.09c-1.38 0-2.51 1.12-2.51 2.5s1.13 2.5 2.51 2.5h26.09c13.842 0 25.967-8.979 30.11-22 19.115 14.212 31.025 35.501 24.54 57.71-.377 1.268.326 2.692 1.7 3.1 1.284.393 2.709-.363 3.1-1.7z"/><path d="m139.59 30.534c0-1.38-1.12-2.5-2.5-2.5-1.37 0-2.49 1.12-2.49 2.5s1.12 2.5 2.49 2.5c1.38 0 2.5-1.12 2.5-2.5z"/><path d="m55.729 208.764c-1.149.76-1.47 2.31-.71 3.46.752 1.16 2.311 1.477 3.46.72 1.15-.76 1.471-2.31.721-3.46-.74-1.111-2.35-1.45-3.471-.72z"/><path d="m64.99 217.264c-.851-1.02-2.5-1.16-3.521-.3-1.072.904-1.179 2.491-.31 3.52 17.705 21.023 44.114 32.304 69.779 31.05 19.641-.88 38.95-8.84 54.38-22.41 14.638-12.875 24.592-29.686 28.239-47.532h7.816c14.819 0 26.876-12.057 26.876-26.876 0-14.843-12.057-26.919-26.876-26.919h-6.073v-32.94c2.592-1.86 5.01-3.995 7.18-6.393.92-1.03.84-2.61-.189-3.53-.98-.89-2.63-.81-3.521.17 0 0 0 .01-.01.01-2.02 2.24-4.28 4.25-6.74 5.96-7.756 0-158.548 0-166.3 0v-22.04c0-20.004 16.223-36 36-36h45.38c1.37 0 2.49-1.12 2.49-2.5 0-1.37-1.12-2.5-2.49-2.5h-45.38c-22.356 0-41 18.062-41 41-.013 33.86-.011 14.545-.005 58.777h-6.059c-14.836 0-26.905 12.063-26.905 26.891 0 14.835 12.069 26.905 26.905 26.905h7.823c1.516 7.551 3.999 14.845 7.412 21.698.59 1.2 2.13 1.72 3.351 1.12 1.24-.62 1.738-2.135 1.119-3.35-3.51-7.05-5.979-14.58-7.359-22.41l-.002-.003c-1.59-9.142-1.281-11.685-1.281-36.292l32.85-46.294h98.881l32.851 46.294v21.962c0 46.504-39.842 80.534-79.568 82.214-25.049 1.083-49.248-9.675-65.743-29.282zm150.31-52.931v-31.537h6.074c12.063 0 21.876 9.833 21.876 21.919 0 12.063-9.813 21.876-21.876 21.876h-6.917c.48-3.294.843-8.029.843-12.258zm-180.645 12.273c-12.078 0-21.905-9.827-21.905-21.905 0-12.07 9.827-21.891 21.905-21.891h6.06c0 34.009-.223 36.369.871 43.795h-6.931zm11.062-42.879v-3.417c0-.007-.002-.013-.002-.02v-34.211h26.716zm137.866-37.648h26.716l.001 34.199c0 .006-.002.012-.002.019v3.431z"/><path d="m108.243 206.785-8.995 8.996c-.977.976-.977 2.559 0 3.536.977.976 2.559.976 3.535 0l7.228-7.228 7.229 7.228c.977.977 2.559.977 3.535 0l7.229-7.228 7.229 7.228c.977.977 2.559.977 3.535 0l7.229-7.228 7.229 7.228c.977.977 2.559.977 3.535 0 .977-.976.977-2.559 0-3.535l-8.996-8.996c-.977-.977-2.559-.977-3.535 0l-7.229 7.228-7.229-7.228c-.977-.977-2.559-.977-3.535 0l-7.229 7.228-7.229-7.228c-.938-.94-2.598-.939-3.536-.001z"/><path d="m98.375 165.119c1.381 0 2.5-1.119 2.5-2.5v-8.938c0-6.307-5.131-11.438-11.438-11.438s-11.437 5.131-11.437 11.438v8.938c0 1.381 1.119 2.5 2.5 2.5s2.5-1.119 2.5-2.5v-8.938c0-3.55 2.888-6.438 6.438-6.438s6.438 2.888 6.438 6.438v8.938c-.001 1.38 1.118 2.5 2.499 2.5z"/><path d="m174.307 165.119c1.381 0 2.5-1.119 2.5-2.5v-8.938c0-6.307-5.131-11.438-11.438-11.438s-11.438 5.131-11.438 11.438v8.938c0 1.381 1.119 2.5 2.5 2.5s2.5-1.119 2.5-2.5v-8.938c0-3.55 2.888-6.438 6.438-6.438s6.438 2.888 6.438 6.438v8.938c0 1.38 1.119 2.5 2.5 2.5z"/></g></g></g></svg>