<svg height="512" viewBox="0 0 512 512" width="512" xmlns="http://www.w3.org/2000/svg"><g><path d="m390.68 453.68a240.035 240.035 0 0 1 -333.36-333.36l106.68 106.68-47.65 47.65a24.01 24.01 0 0 0 -6.04 23.84 152.332 152.332 0 0 0 102.2 102.2 24.01 24.01 0 0 0 23.84-6.04l47.65-47.65z" fill="#57a4ff"/><g fill="#004fac"><path d="m413.46 401.14-74.83-74.83a32.012 32.012 0 0 0 -45.26 0l-15.03 15.03-47.65 47.66a15.984 15.984 0 0 1 -15.9 4.02 144.324 144.324 0 0 1 -96.81-96.81 16.006 16.006 0 0 1 4.02-15.9l47.66-47.65 15.03-15.03a32.012 32.012 0 0 0 0-45.26l-74.83-74.83a32.131 32.131 0 0 0 -24.45-9.34 31.759 31.759 0 0 0 -23.04 11.82c-4.08 5.09-8 10.41-11.67 15.8v.01a248.034 248.034 0 0 0 344.47 344.47.01.01 0 0 0 .01-.01c5.39-3.65 10.71-7.58 15.8-11.66a31.759 31.759 0 0 0 11.82-23.04 32.094 32.094 0 0 0 -9.34-24.45zm-338.6-291.12a15.55 15.55 0 0 1 11.43-5.85 16.107 16.107 0 0 1 12.25 4.69l74.83 74.83a15.982 15.982 0 0 1 0 22.62l-9.37 9.38-96.28-96.28c2.3-3.19 4.69-6.33 7.14-9.39zm181.14 376.98a232.054 232.054 0 0 1 -197.35-354.04l29.58 29.58 64.46 64.46-42 42a31.992 31.992 0 0 0 -8.05 31.78 160.363 160.363 0 0 0 107.58 107.58 31.992 31.992 0 0 0 31.78-8.05l42-42 94.04 94.04a230.809 230.809 0 0 1 -122.04 34.65zm150.83-62.28a15.547 15.547 0 0 1 -5.85 11.42c-3.06 2.45-6.2 4.84-9.39 7.14l-96.28-96.28 9.38-9.37a15.982 15.982 0 0 1 22.62 0l74.83 74.83a16.1 16.1 0 0 1 4.69 12.26z"/><path d="m384 8a120.034 120.034 0 0 0 -106.85 174.66l-37.02 78.56a8.005 8.005 0 0 0 10.65 10.65l78.56-37.02a120.008 120.008 0 1 0 54.66-226.85zm0 224a104.026 104.026 0 0 1 -50.54-13.09 8.026 8.026 0 0 0 -7.31-.25l-62.06 29.25 29.25-62.06a8.026 8.026 0 0 0 -.25-7.31 104.01 104.01 0 1 1 90.91 53.46z"/><path d="m440 120h-112a8 8 0 0 0 0 16h112a8 8 0 0 0 0-16z"/><path d="m440 88h-112a8 8 0 0 0 0 16h112a8 8 0 0 0 0-16z"/><path d="m392 152h-64a8 8 0 0 0 0 16h64a8 8 0 0 0 0-16z"/><path d="m424 152h-8a8 8 0 0 0 0 16h8a8 8 0 0 0 0-16z"/></g></g></svg>