<svg id="_x33_0" enable-background="new 0 0 64 64" height="512" viewBox="0 0 64 64" width="512" xmlns="http://www.w3.org/2000/svg"><g><g><g><path d="m38 44c0 .68-.04 1.34-.11 2-1 9-8.63 16-17.89 16-9.94 0-18-8.06-18-18 0-17 18-42 18-42s7.1 9.86 12.39 21.41c-2.16-2.11-5.12-3.41-8.39-3.41-3.32 0-6.32 1.34-8.49 3.51s-3.51 5.17-3.51 8.49 1.34 6.32 3.51 8.49 5.17 3.51 8.49 3.51 6.32-1.34 8.49-3.51c1.72-1.72 2.92-3.97 3.34-6.49h.56c1 3.47 1.61 6.87 1.61 10z" fill="#ff826e"/></g><g><path d="m50 6v7c0 1.33-.86 2.45-2.06 2.84-.29.11-.61.16-.94.16h-2c-.33 0-.65-.05-.94-.16-1.2-.39-2.06-1.51-2.06-2.84v-7c0-2.21 1.79-4 4-4 1.1 0 2.1.45 2.83 1.17.72.73 1.17 1.73 1.17 2.83z" fill="#aab2bd"/></g><g><path d="m47 16c.33 0 .65-.05.94-.16l.06.16v3c0 .55-.45 1-1 1h-1-1c-.55 0-1-.45-1-1v-3l.06-.16c.29.11.61.16.94.16z" fill="#ccd1d9"/></g><g><path d="m36.39 34h-.56c.11-.65.17-1.32.17-2s-.06-1.35-.17-2h3.17c.55 0 1 .45 1 1v1 1c0 .55-.45 1-1 1z" fill="#ccd1d9"/></g><g><path d="m24 20c3.27 0 6.23 1.3 8.39 3.41v.01c.04.03.07.06.1.09 1.72 1.72 2.92 3.97 3.34 6.49.11.65.17 1.32.17 2s-.06 1.35-.17 2c-.42 2.52-1.62 4.77-3.34 6.49-2.17 2.17-5.17 3.51-8.49 3.51s-6.32-1.34-8.49-3.51-3.51-5.17-3.51-8.49 1.34-6.32 3.51-8.49 5.17-3.51 8.49-3.51z" fill="#69d6f4"/></g><g><path d="m22 32c0-1.1.9-2 2-2 .55 0 1.05.22 1.41.59.37.36.59.86.59 1.41 0 1.1-.9 2-2 2s-2-.9-2-2z" fill="#e6e9ed"/></g></g><g><path d="m25.285 29.301c-.391-.188-.823-.301-1.285-.301-1.654 0-3 1.346-3 3s1.346 3 3 3 3-1.346 3-3c0-.462-.113-.894-.301-1.285l2.958-2.957-1.414-1.414zm-1.285 3.699c-.552 0-1-.449-1-1s.448-1 1-1 1 .449 1 1-.448 1-1 1z"/><path d="m7.3 46.786-1.953.428c.74 3.375 2.651 6.419 5.383 8.571l1.238-1.57c-2.369-1.867-4.027-4.505-4.668-7.429z"/><path d="m7 44c0-2.004.303-4.28.901-6.767l-1.945-.467c-.634 2.639-.956 5.073-.956 7.234 0 .359.013.718.038 1.071l1.994-.143c-.021-.306-.032-.615-.032-.928z"/><path d="m58 49c-2.414 0-4.434 1.721-4.899 4h-1.357l-3.732-12.439-3.762 12.225-1.415-7.786h-3.886c.018-.333.051-.662.051-1 0-2.673-.459-5.706-1.316-9h1.316c1.103 0 2-.897 2-2h17c2.757 0 5-2.243 5-5s-2.243-5-5-5h-10c-.552 0-1-.449-1-1v-1c1.103 0 2-.897 2-2v-2.556c1.19-.694 2-1.97 2-3.444v-7c0-2.757-2.243-5-5-5s-5 2.243-5 5v7c0 1.474.81 2.75 2 3.444v2.556c0 1.103.897 2 2 2v1c0 1.654 1.346 3 3 3h10c1.654 0 3 1.346 3 3s-1.346 3-3 3h-17c0-1.103-.897-2-2-2h-2.363c-.561-2.361-1.756-4.477-3.41-6.146-5.255-11.444-12.344-21.339-12.415-21.438l-.812-1.127-.812 1.127c-.743 1.031-18.188 25.459-18.188 42.584 0 10.477 8.523 19 19 19 9.453 0 17.294-6.947 18.739-16h2.426l2.585 14.214 4.238-13.774 2.268 7.56h2.845c.465 2.279 2.484 4 4.899 4 2.757 0 5-2.243 5-5s-2.243-5-5-5zm-15-43c0-1.654 1.346-3 3-3s3 1.346 3 3v7c0 1.103-.897 2-2 2h-2c-1.103 0-2-.897-2-2zm4 11v2h-2v-2zm-14.552 22.034-1.377-1.377-1.414 1.414 1.377 1.377c-1.667 1.391-3.751 2.294-6.034 2.501v-1.949h-2v1.949c-2.283-.207-4.366-1.111-6.034-2.501l1.377-1.377-1.414-1.414-1.377 1.377c-1.391-1.667-2.294-3.751-2.501-6.034h1.949v-2h-1.949c.207-2.283 1.111-4.366 2.501-6.034l1.377 1.377 1.414-1.414-1.377-1.377c1.667-1.391 3.751-2.295 6.034-2.502v1.95h2v-1.949c2.283.207 4.366 1.111 6.034 2.502l-1.377 1.377 1.414 1.414 1.377-1.377c1.391 1.667 2.294 3.751 2.501 6.034h-1.949v2h1.949c-.207 2.282-1.11 4.365-2.501 6.033zm6.552-8.034v2h-2.051c.026-.331.051-.662.051-1s-.025-.669-.051-1zm-19 30c-9.374 0-17-7.626-17-17 0-14.428 13.516-35.147 17.001-40.249 1.749 2.555 6.018 9.029 9.828 16.645-1.756-.885-3.732-1.396-5.829-1.396-7.168 0-13 5.832-13 13s5.832 13 13 13c5.48 0 10.169-3.414 12.078-8.222.609 2.636.922 5.059.922 7.222 0 9.374-7.626 17-17 17zm38-4c-1.654 0-3-1.346-3-3s1.346-3 3-3 3 1.346 3 3-1.346 3-3 3z"/></g></g></svg>