<svg aria-hidden="true" style="position: absolute; width: 0; height: 0; overflow: hidden;" version="1.1" xmlns="http://www.w3.org/2000/svg" xmlns:xlink="http://www.w3.org/1999/xlink">
<defs>
<symbol id="icon-search" viewBox="0 0 32 32">
<path d="M31.715 28.953c0.381 0.381 0.381 0.999 0 1.381l-1.381 1.381c-0.382 0.381-1 0.381-1.381 0l-9.668-9.668c-0.105-0.105-0.175-0.229-0.222-0.361-1.983 1.449-4.418 2.314-7.063 2.314-6.627 0-12-5.373-12-12s5.373-12 12-12c6.627 0 12 5.373 12 12 0 2.645-0.865 5.080-2.314 7.063 0.132 0.047 0.256 0.116 0.361 0.222l9.668 9.668zM12 4c-4.418 0-8 3.582-8 8s3.582 8 8 8 8-3.582 8-8c0-4.418-3.582-8-8-8z"></path>
</symbol>
<symbol id="icon-printer" viewBox="0 0 32 32">
<path d="M8 2h16v4h-16v-4z"></path>
<path d="M30 8h-28c-1.1 0-2 0.9-2 2v10c0 1.1 0.9 2 2 2h6v8h16v-8h6c1.1 0 2-0.9 2-2v-10c0-1.1-0.9-2-2-2zM4 14c-1.105 0-2-0.895-2-2s0.895-2 2-2 2 0.895 2 2-0.895 2-2 2zM22 28h-12v-10h12v10z"></path>
</symbol>
<symbol id="icon-calendar" viewBox="0 0 32 32">
<path d="M29.334 3h-4.334v-2c0-0.553-0.447-1-1-1s-1 0.447-1 1v2h-6v-2c0-0.553-0.448-1-1-1s-1 0.447-1 1v2h-6v-2c0-0.553-0.448-1-1-1s-1 0.447-1 1v2h-4.333c-1.473 0-2.667 1.193-2.667 2.666v23.667c0 1.473 1.194 2.667 2.667 2.667h26.667c1.473 0 2.666-1.194 2.666-2.667v-23.667c0-1.473-1.193-2.666-2.666-2.666zM30 29.333c0 0.368-0.299 0.667-0.666 0.667h-26.667c-0.368 0-0.667-0.299-0.667-0.667v-23.667c0-0.367 0.299-0.666 0.667-0.666h4.333v2c0 0.553 0.448 1 1 1s1-0.447 1-1v-2h6v2c0 0.553 0.448 1 1 1s1-0.447 1-1v-2h6v2c0 0.553 0.447 1 1 1s1-0.447 1-1v-2h4.334c0.367 0 0.666 0.299 0.666 0.666v23.667zM7 12h4v3h-4zM7 17h4v3h-4zM7 22h4v3h-4zM14 22h4v3h-4zM14 17h4v3h-4zM14 12h4v3h-4zM21 22h4v3h-4zM21 17h4v3h-4zM21 12h4v3h-4z"></path>
</symbol>
<symbol id="icon-home" viewBox="0 0 24 24">
<path d="M2.386 8.211c-0.236 0.184-0.386 0.469-0.386 0.789v11c0 0.828 0.337 1.58 0.879 2.121s1.293 0.879 2.121 0.879h14c0.828 0 1.58-0.337 2.121-0.879s0.879-1.293 0.879-2.121v-11c-0.001-0.3-0.134-0.593-0.386-0.789l-9-7c-0.358-0.275-0.861-0.285-1.228 0zM16 21v-9c0-0.552-0.448-1-1-1h-6c-0.552 0-1 0.448-1 1v9h-3c-0.276 0-0.525-0.111-0.707-0.293s-0.293-0.431-0.293-0.707v-10.511l8-6.222 8 6.222v10.511c0 0.276-0.111 0.525-0.293 0.707s-0.431 0.293-0.707 0.293zM10 21v-8h4v8z"></path>
</symbol>
<symbol id="icon-list-ol" viewBox="0 0 28 28">
<path d="M5.953 25.312c0 1.719-1.344 2.688-2.969 2.688-0.984 0-1.984-0.328-2.688-1.031l0.891-1.375c0.422 0.391 1.062 0.703 1.656 0.703 0.547 0 1.125-0.266 1.125-0.891 0-0.875-1-0.922-1.641-0.875l-0.406-0.875c0.562-0.719 1.078-1.516 1.75-2.125v-0.016c-0.5 0-1.016 0.031-1.516 0.031v0.828h-1.656v-2.375h5.203v1.375l-1.484 1.797c1.047 0.25 1.734 1.062 1.734 2.141zM5.984 15.516v2.484h-5.656c-0.047-0.281-0.094-0.562-0.094-0.844 0-2.891 3.531-3.328 3.531-4.641 0-0.531-0.328-0.812-0.844-0.812-0.547 0-1 0.469-1.266 0.906l-1.328-0.922c0.516-1.078 1.578-1.687 2.766-1.687 1.453 0 2.703 0.859 2.703 2.406 0 2.312-3.391 2.828-3.437 4.047h1.984v-0.938h1.641zM28 20.5v3c0 0.266-0.234 0.5-0.5 0.5h-19c-0.281 0-0.5-0.234-0.5-0.5v-3c0-0.281 0.219-0.5 0.5-0.5h19c0.266 0 0.5 0.219 0.5 0.5zM6 6.453v1.547h-5.234v-1.547h1.672c0-1.266 0.016-2.531 0.016-3.797v-0.187h-0.031c-0.172 0.344-0.484 0.578-0.781 0.844l-1.109-1.188 2.125-1.984h1.656v6.312h1.687zM28 12.5v3c0 0.266-0.234 0.5-0.5 0.5h-19c-0.281 0-0.5-0.234-0.5-0.5v-3c0-0.281 0.219-0.5 0.5-0.5h19c0.266 0 0.5 0.219 0.5 0.5zM28 4.5v3c0 0.266-0.234 0.5-0.5 0.5h-19c-0.281 0-0.5-0.234-0.5-0.5v-3c0-0.266 0.219-0.5 0.5-0.5h19c0.266 0 0.5 0.234 0.5 0.5z"></path>
</symbol>
</defs>
</svg>
