<?xml version="1.0" encoding="iso-8859-1"?>
<!-- Generator: Adobe Illustrator 19.0.0, SVG Export Plug-In . SVG Version: 6.00 Build 0)  -->
<svg version="1.1" id="Capa_1" xmlns="http://www.w3.org/2000/svg" xmlns:xlink="http://www.w3.org/1999/xlink" x="0px" y="0px"
	 viewBox="0 0 511.999 511.999" style="enable-background:new 0 0 511.999 511.999;" xml:space="preserve">
<path style="fill:#08AEEA;" d="M256,39.604H74.636c-39.023,0-69.828,32.825-66.971,71.363l23.89,322.232
	c2.576,34.741,31.792,61.626,66.971,61.626H256h157.474c35.179,0,64.395-26.884,66.971-61.626l23.89-322.232
	c2.857-38.538-27.948-71.363-66.971-71.363L256,39.604L256,39.604z"/>
<path style="fill:#08AEEA;" d="M504.34,110.968l-23.898,322.227c-2.572,34.745-31.794,61.634-66.968,61.634h-53.518
	c35.174,0,64.395-26.889,66.968-61.634l23.888-322.227c2.861-38.544-27.946-71.364-66.968-71.364h53.518
	C476.385,39.604,507.191,72.424,504.34,110.968z"/>
<circle style="fill:#FFEFD8;" cx="256" cy="123.029" r="105.85"/>
<path style="fill:#EDDDC8;" d="M361.85,123.022c0,58.463-47.387,105.85-105.85,105.85c-7.747,0-15.304-0.837-22.582-2.423
	c47.606-10.339,83.269-52.711,83.269-103.428c0-50.707-35.662-93.089-83.269-103.428c7.278-1.585,14.835-2.423,22.582-2.423
	C314.463,17.171,361.85,64.568,361.85,123.022z"/>
<path d="M492.276,56.005c-14.091-15.175-34.106-23.878-54.912-23.878H323.609C304.722,18.043,281.318,9.696,256,9.696
	s-48.722,8.347-67.609,22.431H74.636c-20.806,0-40.821,8.703-54.912,23.878C5.611,71.203-1.319,90.918,0.208,111.52l4.862,65.577
	c0.305,4.118,3.898,7.198,8.01,6.904c4.118-0.306,7.209-3.892,6.904-8.01l-4.862-65.577c-1.217-16.407,4.31-32.117,15.561-44.233
	c11.437-12.316,27.047-19.1,43.953-19.1h97.319c-18.189,20.111-29.282,46.754-29.282,75.942
	c0,62.489,50.839,113.328,113.328,113.328s113.328-50.839,113.328-113.328c0-29.187-11.093-55.831-29.282-75.942h97.319
	c16.906,0,32.516,6.783,43.953,19.1c11.251,12.116,16.777,27.825,15.561,44.233l-23.89,322.232
	c-2.274,30.674-28.416,54.701-59.514,54.701H305.852c-4.13,0-7.477,3.347-7.477,7.478s3.348,7.477,7.477,7.477h107.622
	c18.895,0,36.928-7.018,50.775-19.76c13.866-12.759,22.266-30.087,23.653-48.79l23.89-322.232
	C513.319,90.918,506.389,71.203,492.276,56.005z M354.373,123.024c0,54.243-44.13,98.373-98.373,98.373
	s-98.373-44.129-98.373-98.373S201.757,24.651,256,24.651S354.373,68.78,354.373,123.024z"/>
<path d="M259.99,487.347H98.526c-31.099,0-57.24-24.027-59.513-54.688l-15.32-211.606c-0.298-4.118-3.878-7.218-7.998-6.917
	c-4.119,0.298-7.216,3.879-6.918,7.998l15.321,211.619c1.387,18.703,9.787,36.031,23.653,48.79
	c13.847,12.742,31.88,19.76,50.775,19.76H259.99c4.13,0,7.477-3.347,7.477-7.477S264.12,487.347,259.99,487.347z"/>
<path d="M256,68.7c4.13,0,7.477-3.347,7.477-7.478V44.684c0-4.13-3.348-7.478-7.477-7.478c-4.13,0-7.477,3.347-7.477,7.478v16.539
	C248.523,65.353,251.871,68.7,256,68.7z"/>
<path d="M256,177.348c-4.13,0-7.477,3.347-7.477,7.477v16.538c0,4.13,3.348,7.477,7.477,7.477c4.13,0,7.477-3.347,7.477-7.477
	v-16.538C263.478,180.695,260.13,177.348,256,177.348z"/>
<path d="M218.624,73.241c1.385,2.399,3.898,3.74,6.482,3.74c1.269,0,2.554-0.323,3.732-1.003c3.576-2.065,4.802-6.638,2.737-10.214
	l-8.269-14.323c-2.065-3.577-6.638-4.8-10.214-2.737c-3.576,2.065-4.802,6.638-2.737,10.214L218.624,73.241z"/>
<path d="M293.376,172.807c-2.065-3.576-6.638-4.801-10.214-2.737c-3.577,2.065-4.802,6.638-2.737,10.214l8.269,14.322
	c1.385,2.399,3.898,3.74,6.482,3.74c1.269,0,2.554-0.323,3.732-1.003c3.577-2.065,4.802-6.638,2.737-10.214L293.376,172.807z"/>
<path d="M184.418,90.329l14.322,8.269c1.178,0.68,2.463,1.003,3.732,1.003c2.584,0,5.097-1.341,6.482-3.74
	c2.065-3.576,0.84-8.149-2.737-10.214l-14.322-8.269c-3.577-2.064-8.15-0.84-10.214,2.737
	C179.616,83.691,180.841,88.264,184.418,90.329z"/>
<path d="M327.583,155.718l-14.323-8.269c-3.577-2.064-8.15-0.84-10.214,2.737c-2.065,3.576-0.839,8.149,2.737,10.214l14.323,8.269
	c1.178,0.68,2.463,1.003,3.732,1.003c2.584,0,5.098-1.341,6.482-3.74C332.385,162.356,331.159,157.783,327.583,155.718z"/>
<path d="M201.676,123.024c0-4.13-3.348-7.478-7.477-7.478h-16.538c-4.13,0-7.477,3.347-7.477,7.478s3.348,7.477,7.477,7.477h16.538
	C198.329,130.501,201.676,127.154,201.676,123.024z"/>
<path d="M310.324,123.024c0,4.13,3.348,7.477,7.477,7.477h16.538c4.13,0,7.477-3.347,7.477-7.477s-3.348-7.478-7.477-7.478h-16.538
	C313.671,115.546,310.324,118.894,310.324,123.024z"/>
<path d="M208.954,150.186c-2.065-3.577-6.638-4.801-10.214-2.737l-14.322,8.269c-3.577,2.065-4.802,6.638-2.737,10.214
	c1.385,2.399,3.898,3.74,6.482,3.74c1.269,0,2.554-0.323,3.732-1.003l14.322-8.269C209.794,158.335,211.019,153.762,208.954,150.186
	z"/>
<path d="M320.105,77.378l-14.323,8.269c-3.576,2.065-4.802,6.638-2.737,10.214c1.385,2.399,3.898,3.74,6.482,3.74
	c1.269,0,2.554-0.323,3.732-1.003l14.323-8.269c3.576-2.065,4.802-6.638,2.737-10.214C328.254,76.538,323.681,75.315,320.105,77.378
	z"/>
<path d="M228.838,170.07c-3.577-2.065-8.15-0.84-10.214,2.737l-8.269,14.322c-2.065,3.576-0.84,8.149,2.737,10.214
	c1.178,0.68,2.463,1.003,3.732,1.003c2.584,0,5.097-1.341,6.482-3.74l8.269-14.322C233.64,176.708,232.415,172.135,228.838,170.07z"
	/>
<path d="M283.162,75.978c1.178,0.679,2.463,1.003,3.732,1.003c2.584,0,5.098-1.341,6.482-3.74l8.269-14.323
	c2.065-3.576,0.839-8.149-2.737-10.214c-3.577-2.064-8.15-0.84-10.214,2.737l-8.269,14.323
	C278.36,69.34,279.586,73.913,283.162,75.978z"/>
<path d="M263.067,102.397V87.989c0-4.13-3.348-7.477-7.477-7.477c-4.13,0-7.477,3.347-7.477,7.477v14.728
	c-0.505,0.217-1.008,0.442-1.499,0.702c-9.783,5.175-13.531,17.345-8.356,27.127c2.507,4.74,6.71,8.218,11.834,9.797
	c1.952,0.602,3.948,0.9,5.933,0.9c3.228,0,6.427-0.788,9.361-2.341c4.739-2.507,8.218-6.709,9.796-11.833s1.067-10.556-1.44-15.295
	C271.429,107.4,267.66,104.12,263.067,102.397z M258.393,125.684c-1.209,0.638-2.593,0.767-3.899,0.367
	c-1.307-0.403-2.378-1.29-3.017-2.498c-0.639-1.207-0.77-2.593-0.368-3.898c0.403-1.307,1.29-2.378,2.498-3.017
	c0.748-0.395,1.564-0.596,2.387-0.596c0.506,0,1.015,0.076,1.512,0.229c1.306,0.402,2.377,1.289,3.016,2.497
	C261.843,121.26,260.887,124.363,258.393,125.684z"/>
<g>
</g>
<g>
</g>
<g>
</g>
<g>
</g>
<g>
</g>
<g>
</g>
<g>
</g>
<g>
</g>
<g>
</g>
<g>
</g>
<g>
</g>
<g>
</g>
<g>
</g>
<g>
</g>
<g>
</g>
</svg>
