<svg aria-hidden="true" style="position: absolute; width: 0; height: 0; overflow: hidden;" version="1.1" xmlns="http://www.w3.org/2000/svg" xmlns:xlink="http://www.w3.org/1999/xlink">
<defs>
<symbol id="icon-key" viewBox="0 0 24 24">
<title>key</title>
<path d="M20.293 1.293l-2 2c-0.391 0.391-0.391 1.024 0 1.414s1.024 0.391 1.414 0l2-2c0.391-0.391 0.391-1.024 0-1.414s-1.024-0.391-1.414 0zM12.092 10.898c-1.262-1.244-2.908-1.869-4.553-1.873-1.652-0.003-3.308 0.62-4.578 1.873-1.277 1.26-1.923 2.921-1.935 4.583s0.614 3.332 1.874 4.609c1.34 1.323 3.009 1.946 4.671 1.935s3.323-0.657 4.583-1.935 1.884-2.947 1.873-4.609-0.657-3.323-1.935-4.583zM10.688 12.322c0.885 0.873 1.332 2.020 1.339 3.173s-0.424 2.306-1.297 3.191-2.020 1.332-3.173 1.339-2.306-0.424-3.191-1.297c-0.916-0.927-1.347-2.080-1.339-3.233s0.455-2.3 1.339-3.173c0.879-0.867 2.023-1.299 3.169-1.296 1.141 0.002 2.279 0.435 3.152 1.296zM12.097 12.317l4.11-4.11c0.391-0.391 0.391-1.024 0-1.414s-1.024-0.391-1.414 0l-4.11 4.11c-0.391 0.391-0.391 1.024 0 1.414s1.024 0.391 1.414 0zM14.793 8.207l3 3c0.391 0.391 1.024 0.391 1.414 0l3.5-3.5c0.391-0.391 0.391-1.024 0-1.414l-3-3c-0.391-0.391-1.024-0.391-1.414 0s-0.391 1.024 0 1.414l2.293 2.293-2.086 2.086-2.293-2.293c-0.391-0.391-1.024-0.391-1.414 0s-0.391 1.024 0 1.414zM16.207 8.207l3.5-3.5c0.391-0.391 0.391-1.024 0-1.414s-1.024-0.391-1.414 0l-3.5 3.5c-0.391 0.391-0.391 1.024 0 1.414s1.024 0.391 1.414 0z"></path>
</symbol>
<symbol id="icon-mail" viewBox="0 0 24 24">
<title>mail</title>
<path d="M3 7.921l8.427 5.899c0.34 0.235 0.795 0.246 1.147 0l8.426-5.899v10.079c0 0.272-0.11 0.521-0.295 0.705s-0.433 0.295-0.705 0.295h-16c-0.272 0-0.521-0.11-0.705-0.295s-0.295-0.433-0.295-0.705zM1 5.983c0 0.010 0 0.020 0 0.030v11.987c0 0.828 0.34 1.579 0.88 2.12s1.292 0.88 2.12 0.88h16c0.828 0 1.579-0.34 2.12-0.88s0.88-1.292 0.88-2.12v-11.988c0-0.010 0-0.020 0-0.030-0.005-0.821-0.343-1.565-0.88-2.102-0.541-0.54-1.292-0.88-2.12-0.88h-16c-0.828 0-1.579 0.34-2.12 0.88-0.537 0.537-0.875 1.281-0.88 2.103zM20.894 5.554l-8.894 6.225-8.894-6.225c0.048-0.096 0.112-0.183 0.188-0.259 0.185-0.185 0.434-0.295 0.706-0.295h16c0.272 0 0.521 0.11 0.705 0.295 0.076 0.076 0.14 0.164 0.188 0.259z"></path>
</symbol>
<symbol id="icon-delete_outline" viewBox="0 0 24 24">
<path d="M15.516 3.984h3.469v2.016h-13.969v-2.016h3.469l1.031-0.984h4.969zM8.016 9v9.984h7.969v-9.984h-7.969zM6 18.984v-12h12v12q0 0.797-0.609 1.406t-1.406 0.609h-7.969q-0.797 0-1.406-0.609t-0.609-1.406z"></path>
</symbol>
<symbol id="icon-edit-3" viewBox="0 0 24 24">
<path d="M12 21h9c0.552 0 1-0.448 1-1s-0.448-1-1-1h-9c-0.552 0-1 0.448-1 1s0.448 1 1 1zM15.793 2.793l-12.5 12.5c-0.122 0.121-0.217 0.28-0.263 0.465l-1 4c-0.039 0.15-0.042 0.318 0 0.485 0.134 0.536 0.677 0.862 1.213 0.728l4-1c0.167-0.041 0.33-0.129 0.465-0.263l12.5-12.5c0.609-0.609 0.914-1.41 0.914-2.207s-0.305-1.598-0.914-2.207-1.411-0.915-2.208-0.915-1.598 0.305-2.207 0.914zM17.207 4.207c0.219-0.219 0.504-0.328 0.793-0.328s0.574 0.109 0.793 0.328 0.328 0.504 0.328 0.793-0.109 0.574-0.328 0.793l-12.304 12.304-2.115 0.529 0.529-2.115z"></path>
</symbol>
<symbol id="icon-user-plus" viewBox="0 0 24 24">
<path d="M17 21v-2c0-1.38-0.561-2.632-1.464-3.536s-2.156-1.464-3.536-1.464h-7c-1.38 0-2.632 0.561-3.536 1.464s-1.464 2.156-1.464 3.536v2c0 0.552 0.448 1 1 1s1-0.448 1-1v-2c0-0.829 0.335-1.577 0.879-2.121s1.292-0.879 2.121-0.879h7c0.829 0 1.577 0.335 2.121 0.879s0.879 1.292 0.879 2.121v2c0 0.552 0.448 1 1 1s1-0.448 1-1zM13.5 7c0-1.38-0.561-2.632-1.464-3.536s-2.156-1.464-3.536-1.464-2.632 0.561-3.536 1.464-1.464 2.156-1.464 3.536 0.561 2.632 1.464 3.536 2.156 1.464 3.536 1.464 2.632-0.561 3.536-1.464 1.464-2.156 1.464-3.536zM11.5 7c0 0.829-0.335 1.577-0.879 2.121s-1.292 0.879-2.121 0.879-1.577-0.335-2.121-0.879-0.879-1.292-0.879-2.121 0.335-1.577 0.879-2.121 1.292-0.879 2.121-0.879 1.577 0.335 2.121 0.879 0.879 1.292 0.879 2.121zM23 10h-2v-2c0-0.552-0.448-1-1-1s-1 0.448-1 1v2h-2c-0.552 0-1 0.448-1 1s0.448 1 1 1h2v2c0 0.552 0.448 1 1 1s1-0.448 1-1v-2h2c0.552 0 1-0.448 1-1s-0.448-1-1-1z"></path>
</symbol>
<symbol id="icon-minus" viewBox="0 0 24 24">
<path d="M5 13h14c0.552 0 1-0.448 1-1s-0.448-1-1-1h-14c-0.552 0-1 0.448-1 1s0.448 1 1 1z"></path>
</symbol>
<symbol id="icon-plus1" viewBox="0 0 24 24">
<path d="M18 10h-4v-4c0-1.104-0.896-2-2-2s-2 0.896-2 2l0.071 4h-4.071c-1.104 0-2 0.896-2 2s0.896 2 2 2l4.071-0.071-0.071 4.071c0 1.104 0.896 2 2 2s2-0.896 2-2v-4.071l4 0.071c1.104 0 2-0.896 2-2s-0.896-2-2-2z"></path>
</symbol>
<symbol id="icon-heart" viewBox="0 0 32 32">
<path d="M24 12.977c-3.866 0-7 3.158-7 7.055 0 2.22 1.020 4.197 2.609 5.491-2.056 1.525-3.609 2.488-3.609 2.488s-14-8.652-14-15.622c0-4.2 2.583-8.399 7.5-8.399 4.5 0 6.5 4.296 6.5 4.296s1.75-4.296 6.5-4.296 7.416 4.115 7.416 8.399c0 0.958-0.272 1.943-0.716 2.932-1.281-1.436-3.134-2.344-5.2-2.344zM24 13.984c3.313 0 6 2.707 6 6.047s-2.687 6.048-6 6.048c-3.314 0-6-2.708-6-6.048s2.686-6.047 6-6.047zM21 21.039h2v2.016h2v-2.016h2v-2.016h-2v-2.016h-2v2.016h-2v2.016z"></path>
</symbol>
<symbol id="icon-printer-text" viewBox="0 0 32 32">
<path d="M25 25h2.006c1.654 0 2.994-1.344 2.994-2.999v-9.001c0-1.657-1.341-2.999-2.994-2.999h-2.006v-7c0-1.104-0.891-2-1.997-2h-15.005c-1.103 0-1.997 0.887-1.997 2v7h-2.006c-1.654 0-2.994 1.344-2.994 2.999v9.001c0 1.657 1.341 2.999 2.994 2.999h2.006v4c0 1.104 0.891 2 1.997 2h15.005c1.103 0 1.997-0.887 1.997-2v-4zM6 24h-1.993c-1.109 0-2.007-0.897-2.007-2.003v-8.994c0-1.109 0.899-2.003 2.007-2.003h22.985c1.109 0 2.007 0.897 2.007 2.003v8.994c0 1.109-0.899 2.003-2.007 2.003h-1.993v-3h-19v3zM8 2h15c0.545 0 1 0.446 1 0.997v7.003h-17v-7.003c0-0.544 0.448-0.997 1-0.997zM7 22h17v7.003c0 0.544-0.448 0.997-1 0.997h-15c-0.545 0-1-0.446-1-0.997v-7.003zM24 16c0.552 0 1-0.448 1-1s-0.448-1-1-1c-0.552 0-1 0.448-1 1s0.448 1 1 1v0zM8 24v1h15v-1h-15zM8 27v1h15v-1h-15z"></path>
</symbol>
<symbol id="icon-search" viewBox="0 0 32 32">
<path d="M20 0.005c-6.627 0-12 5.373-12 12 0 2.026 0.507 3.933 1.395 5.608l-8.344 8.342 0.007 0.006c-0.652 0.641-1.058 1.529-1.058 2.516 0 1.949 1.58 3.529 3.529 3.529 0.985 0 1.874-0.406 2.515-1.059l-0.002-0.002 8.341-8.34c1.676 0.891 3.586 1.4 5.617 1.4 6.627 0 12-5.373 12-12s-5.373-12-12-12zM4.795 29.697c-0.322 0.334-0.768 0.543-1.266 0.543-0.975 0-1.765-0.789-1.765-1.764 0-0.498 0.21-0.943 0.543-1.266l-0.009-0.008 8.066-8.066c0.705 0.951 1.545 1.791 2.494 2.498l-8.063 8.063zM20 22.006c-5.522 0-10-4.479-10-10s4.478-10 10-10c5.521 0 10 4.478 10 10s-4.479 10-10 10zM20 5.005c0.275 0 0.5 0.224 0.5 0.5s-0.225 0.5-0.5 0.5c-3.314 0-6 2.687-6 6 0 0.276-0.224 0.5-0.5 0.5s-0.5-0.224-0.5-0.5c0-3.866 3.133-7 7-7z"></path>
</symbol>
<symbol id="icon-plus1" viewBox="0 0 32 32">
<path d="M24 13.333h-5.333v-5.333c0-1.472-1.195-2.667-2.667-2.667s-2.667 1.195-2.667 2.667l0.095 5.333h-5.428c-1.472 0-2.667 1.195-2.667 2.667s1.195 2.667 2.667 2.667l5.428-0.095-0.095 5.428c0 1.472 1.195 2.667 2.667 2.667s2.667-1.195 2.667-2.667v-5.428l5.333 0.095c1.472 0 2.667-1.195 2.667-2.667s-1.195-2.667-2.667-2.667z"></path>
</symbol>
<symbol id="icon-list" viewBox="0 0 20 20">
<path d="M1 4h2v2h-2v-2zM5 4h14v2h-14v-2zM1 9h2v2h-2v-2zM5 9h14v2h-14v-2zM1 14h2v2h-2v-2zM5 14h14v2h-14v-2z"></path>
</symbol>
</defs>
</svg>
